<?xml version="1.0" encoding="UTF-8"?>
<svg xmlns="http://www.w3.org/2000/svg" id="Layer_1" data-name="Layer 1" viewBox="0 0 24 24">
  <path d="M5.704,13.178l5.295-2.126V6.294c-2.186-1.326-4.668-2.135-7.215-2.345l-.332-.028c-.551,1.092-1.098,2.205-1.662,3.353l-.445,.904,.219,.416c.976,1.854,2.401,3.43,4.139,4.584Z"/>
  <path d="M22.978,14.878c-.053-1.102-.075-2.213-.067-3.323-.983,1.291-2.178,2.411-3.538,3.31-.158,2.427-.794,4.801-1.865,6.977,.878-.434,1.737-.861,2.583-1.291,.19-.096,.344-.251,.44-.442,.556-1.102,1.108-2.226,1.677-3.384l.667-1.357c.075-.152,.11-.321,.102-.491Z"/>
  <path d="M13.001,11.052l5.295,2.126c1.738-1.154,3.163-2.73,4.139-4.584l.219-.416-.445-.904c-.564-1.147-1.111-2.261-1.662-3.353l-.332,.028c-2.546,.211-5.029,1.019-7.215,2.345v4.757Z"/>
  <path d="M17.771,2.288c-.338-.168-.679-.336-1.023-.506l-1.386-.685c-.152-.075-.322-.11-.493-.103-1.904,.093-3.835,.093-5.738,0-.172-.008-.341,.027-.493,.103l-1.386,.685c-.344,.17-.685,.338-1.023,.506,2.032,.428,3.989,1.198,5.771,2.273,1.782-1.076,3.739-1.845,5.771-2.273Z"/>
  <path d="M1.089,11.555c.008,1.11-.014,2.221-.067,3.323-.008,.17,.027,.338,.102,.491l.667,1.357c.569,1.159,1.121,2.282,1.677,3.384,.096,.191,.25,.345,.44,.442,.846,.429,1.705,.856,2.583,1.291-1.071-2.176-1.707-4.55-1.865-6.977-1.36-.898-2.555-2.018-3.538-3.31Z"/>
  <path d="M6.641,14.959c.208,2.65,1.055,5.22,2.469,7.476,0,0,.322,.519,.34,.558,1.694-.073,3.407-.073,5.101,0,.018-.039,.34-.558,.34-.558,1.414-2.255,2.261-4.826,2.469-7.476l-5.359-2.152-5.359,2.152Z"/>
</svg>
