<svg width="256" height="256" viewBox="0 0 256 256" fill="none" xmlns="http://www.w3.org/2000/svg">
<!-- Anchored shadow plate (brand blue) -->
<rect x="6" y="6" width="250" height="250" fill="#0066FF"/>
<!-- Foreground plate (white) -->
<rect width="250" height="250" fill="white"/>
<mask id="path-1-outside-1_2007_57" maskUnits="userSpaceOnUse" x="36" y="37" width="54" height="129" fill="black">
<rect fill="white" x="36" y="37" width="54" height="129"/>
<path d="M39.396 163V142.5H46.448C51.696 142.5 55.8507 141.024 58.912 138.072C62.0827 135.011 63.668 130.965 63.668 125.936V40.82H86.136V125.116C86.136 132.66 84.496 139.275 81.216 144.96C78.0453 150.645 73.4533 155.073 67.44 158.244C61.536 161.415 54.5387 163 46.448 163H39.396Z"/>
</mask>
<path d="M39.396 163V142.5H46.448C51.696 142.5 55.8507 141.024 58.912 138.072C62.0827 135.011 63.668 130.965 63.668 125.936V40.82H86.136V125.116C86.136 132.66 84.496 139.275 81.216 144.96C78.0453 150.645 73.4533 155.073 67.44 158.244C61.536 161.415 54.5387 163 46.448 163H39.396Z" fill="#333333"/>
<path d="M39.396 163H36.396V166H39.396V163ZM39.396 142.5V139.5H36.396V142.5H39.396ZM58.912 138.072L60.9944 140.232L60.9958 140.23L58.912 138.072ZM63.668 40.82V37.82H60.668V40.82H63.668ZM86.136 40.82H89.136V37.82H86.136V40.82ZM81.216 144.96L78.6174 143.461L78.6065 143.48L78.5959 143.499L81.216 144.96ZM67.44 158.244L66.0408 155.59L66.0307 155.596L66.0206 155.601L67.44 158.244ZM39.396 163H42.396V142.5H39.396H36.396V163H39.396ZM39.396 142.5V145.5H46.448V142.5V139.5H39.396V142.5ZM46.448 142.5V145.5C52.281 145.5 57.2496 143.843 60.9944 140.232L58.912 138.072L56.8296 135.912C54.4517 138.205 51.111 139.5 46.448 139.5V142.5ZM58.912 138.072L60.9958 140.23C64.8365 136.522 66.668 131.654 66.668 125.936H63.668H60.668C60.668 130.277 59.3288 133.499 56.8282 135.914L58.912 138.072ZM63.668 125.936H66.668V40.82H63.668H60.668V125.936H63.668ZM63.668 40.82V43.82H86.136V40.82V37.82H63.668V40.82ZM86.136 40.82H83.136V125.116H86.136H89.136V40.82H86.136ZM86.136 125.116H83.136C83.136 132.213 81.5973 138.296 78.6174 143.461L81.216 144.96L83.8146 146.459C87.3947 140.254 89.136 133.107 89.136 125.116H86.136ZM81.216 144.96L78.5959 143.499C75.7211 148.654 71.5643 152.678 66.0408 155.59L67.44 158.244L68.8392 160.898C75.3424 157.469 80.3696 152.637 83.8361 146.421L81.216 144.96ZM67.44 158.244L66.0206 155.601C60.6348 158.493 54.1453 160 46.448 160V163V166C54.932 166 62.4372 164.336 68.8594 160.887L67.44 158.244ZM46.448 163V160H39.396V163V166H46.448V163Z" fill="#333333" mask="url(#path-1-outside-1_2007_57)"/>
<mask id="path-3-outside-2_2007_57" maskUnits="userSpaceOnUse" x="103" y="37" width="104" height="129" fill="black">
<rect fill="white" x="103" y="37" width="104" height="129"/>
<path d="M106.808 163V40.82H129.112V94.12H181.1V40.82H203.568V163H181.1V113.8H129.112V163H106.808Z"/>
</mask>
<path d="M106.808 163V40.82H129.112V94.12H181.1V40.82H203.568V163H181.1V113.8H129.112V163H106.808Z" fill="#333333"/>
<path d="M106.808 163H103.808V166H106.808V163ZM106.808 40.82V37.82H103.808V40.82H106.808ZM129.112 40.82H132.112V37.82H129.112V40.82ZM129.112 94.12H126.112V97.12H129.112V94.12ZM181.1 94.12V97.12H184.1V94.12H181.1ZM181.1 40.82V37.82H178.1V40.82H181.1ZM203.568 40.82H206.568V37.82H203.568V40.82ZM203.568 163V166H206.568V163H203.568ZM181.1 163H178.1V166H181.1V163ZM181.1 113.8H184.1V110.8H181.1V113.8ZM129.112 113.8V110.8H126.112V113.8H129.112ZM129.112 163V166H132.112V163H129.112ZM106.808 163H109.808V40.82H106.808H103.808V163H106.808ZM106.808 40.82V43.82H129.112V40.82V37.82H106.808V40.82ZM129.112 40.82H126.112V94.12H129.112H132.112V40.82H129.112ZM129.112 94.12V97.12H181.1V94.12V91.12H129.112V94.12ZM181.1 94.12H184.1V40.82H181.1H178.1V94.12H181.1ZM181.1 40.82V43.82H203.568V40.82V37.82H181.1V40.82ZM203.568 40.82H200.568V163H203.568H206.568V40.82H203.568ZM203.568 163V160H181.1V163V166H203.568V163ZM181.1 163H184.1V113.8H181.1H178.1V163H181.1ZM181.1 113.8V110.8H129.112V113.8V116.8H181.1V113.8ZM129.112 113.8H126.112V163H129.112H132.112V113.8H129.112ZM129.112 163V160H106.808V163V166H129.112V163Z" fill="#333333" mask="url(#path-3-outside-2_2007_57)"/>
<path d="M71.664 207V179.435H76.696V207H71.664ZM99.129 207.444C97.1557 207.444 95.3303 207.086 93.653 206.371C91.9757 205.656 90.508 204.657 89.25 203.374C87.992 202.091 87.0053 200.587 86.29 198.86C85.5993 197.133 85.254 195.246 85.254 193.199C85.254 191.152 85.587 189.265 86.253 187.538C86.9437 185.787 87.9057 184.282 89.139 183.024C90.397 181.741 91.8647 180.755 93.542 180.064C95.2193 179.349 97.0447 178.991 99.018 178.991C100.991 178.991 102.755 179.324 104.309 179.99C105.888 180.656 107.22 181.544 108.305 182.654C109.39 183.739 110.167 184.936 110.636 186.243L106.159 188.389C105.641 186.958 104.765 185.799 103.532 184.911C102.299 184.023 100.794 183.579 99.018 183.579C97.2913 183.579 95.762 183.986 94.43 184.8C93.1227 185.614 92.099 186.736 91.359 188.167C90.6437 189.598 90.286 191.275 90.286 193.199C90.286 195.123 90.656 196.813 91.396 198.268C92.1607 199.699 93.209 200.821 94.541 201.635C95.873 202.449 97.4023 202.856 99.129 202.856C100.535 202.856 101.83 202.585 103.014 202.042C104.198 201.475 105.148 200.685 105.863 199.674C106.578 198.638 106.936 197.417 106.936 196.011V193.902L109.23 195.9H99.018V191.645H111.968V194.42C111.968 196.541 111.61 198.416 110.895 200.044C110.18 201.672 109.205 203.041 107.972 204.151C106.763 205.236 105.394 206.063 103.865 206.63C102.336 207.173 100.757 207.444 99.129 207.444ZM120.02 207V179.435H125.052V207H120.02Z" fill="#333333"/>
<path d="M71.664 207H70.164V208.5H71.664V207ZM71.664 179.435V177.935H70.164V179.435H71.664ZM76.696 179.435H78.196V177.935H76.696V179.435ZM76.696 207V208.5H78.196V207H76.696ZM71.664 207H73.164V179.435H71.664H70.164V207H71.664ZM71.664 179.435V180.935H76.696V179.435V177.935H71.664V179.435ZM76.696 179.435H75.196V207H76.696H78.196V179.435H76.696ZM76.696 207V205.5H71.664V207V208.5H76.696V207ZM93.653 206.371L93.0646 207.751L93.0646 207.751L93.653 206.371ZM86.29 198.86L84.8973 199.417L84.9007 199.426L84.9042 199.434L86.29 198.86ZM86.253 187.538L84.8575 186.988L84.8535 186.998L86.253 187.538ZM89.139 183.024L88.0681 181.974L88.0679 181.974L89.139 183.024ZM93.542 180.064L94.1131 181.451L94.1218 181.447L94.1304 181.444L93.542 180.064ZM104.309 179.99L103.718 181.369L103.726 181.372L104.309 179.99ZM108.305 182.654L107.232 183.703L107.238 183.709L107.244 183.715L108.305 182.654ZM110.636 186.243L111.284 187.596L112.505 187.011L112.048 185.737L110.636 186.243ZM106.159 188.389L104.749 188.9L105.313 190.458L106.807 189.742L106.159 188.389ZM103.532 184.911L102.656 186.128L102.656 186.128L103.532 184.911ZM94.43 184.8L93.6478 183.52L93.6371 183.527L94.43 184.8ZM91.359 188.167L90.0267 187.478L90.0219 187.487L90.0173 187.496L91.359 188.167ZM91.396 198.268L90.0589 198.948L90.0659 198.962L90.0731 198.975L91.396 198.268ZM94.541 201.635L95.3232 200.355L95.3232 200.355L94.541 201.635ZM103.014 202.042L103.639 203.406L103.651 203.4L103.662 203.395L103.014 202.042ZM105.863 199.674L107.088 200.54L107.093 200.533L107.097 200.526L105.863 199.674ZM106.936 193.902L107.921 192.771L105.436 190.606V193.902H106.936ZM109.23 195.9V197.4H113.236L110.215 194.769L109.23 195.9ZM99.018 195.9H97.518V197.4H99.018V195.9ZM99.018 191.645V190.145H97.518V191.645H99.018ZM111.968 191.645H113.468V190.145H111.968V191.645ZM107.972 204.151L108.974 205.267L108.975 205.266L107.972 204.151ZM103.865 206.63L104.367 208.044L104.377 208.04L104.387 208.036L103.865 206.63ZM99.129 207.444V205.944C97.3411 205.944 95.7179 205.621 94.2414 204.991L93.653 206.371L93.0646 207.751C94.9428 208.552 96.9702 208.944 99.129 208.944V207.444ZM93.653 206.371L94.2414 204.991C92.7422 204.352 91.4391 203.464 90.3209 202.324L89.25 203.374L88.1791 204.424C89.5769 205.849 91.2091 206.959 93.0646 207.751L93.653 206.371ZM89.25 203.374L90.3209 202.324C89.2028 201.184 88.3206 199.842 87.6758 198.286L86.29 198.86L84.9042 199.434C85.69 201.331 86.7812 202.999 88.1791 204.424L89.25 203.374ZM86.29 198.86L87.6827 198.303C87.0697 196.77 86.754 195.075 86.754 193.199H85.254H83.754C83.754 195.418 84.1289 197.496 84.8973 199.417L86.29 198.86ZM85.254 193.199H86.754C86.754 191.317 87.0596 189.615 87.6525 188.078L86.253 187.538L84.8535 186.998C84.1144 188.914 83.754 190.987 83.754 193.199H85.254ZM86.253 187.538L87.6484 188.088C88.2706 186.511 89.1266 185.179 90.2101 184.074L89.139 183.024L88.0679 181.974C86.6847 183.385 85.6167 185.063 84.8576 186.988L86.253 187.538ZM89.139 183.024L90.2099 184.074C91.3244 182.938 92.6216 182.065 94.1131 181.451L93.542 180.064L92.9709 178.677C91.1077 179.444 89.4696 180.545 88.0681 181.974L89.139 183.024ZM93.542 180.064L94.1304 181.444C95.6069 180.814 97.2301 180.491 99.018 180.491V178.991V177.491C96.8592 177.491 94.8318 177.883 92.9536 178.684L93.542 180.064ZM99.018 178.991V180.491C100.822 180.491 102.379 180.795 103.718 181.369L104.309 179.99L104.9 178.611C103.131 177.853 101.161 177.491 99.018 177.491V178.991ZM104.309 179.99L103.726 181.372C105.14 181.969 106.3 182.749 107.232 183.703L108.305 182.654L109.377 181.605C108.139 180.339 106.635 179.343 104.892 178.608L104.309 179.99ZM108.305 182.654L107.244 183.715C108.19 184.66 108.838 185.671 109.224 186.749L110.636 186.243L112.048 185.737C111.497 184.2 110.591 182.819 109.366 181.593L108.305 182.654ZM110.636 186.243L109.988 184.89L105.511 187.036L106.159 188.389L106.807 189.742L111.284 187.596L110.636 186.243ZM106.159 188.389L107.569 187.878C106.949 186.164 105.887 184.758 104.408 183.694L103.532 184.911L102.656 186.128C103.644 186.84 104.333 187.753 104.749 188.9L106.159 188.389ZM103.532 184.911L104.408 183.694C102.879 182.592 101.054 182.079 99.018 182.079V183.579V185.079C100.534 185.079 101.719 185.454 102.656 186.128L103.532 184.911ZM99.018 183.579V182.079C97.0455 182.079 95.2398 182.547 93.6478 183.52L94.43 184.8L95.2122 186.08C96.2842 185.425 97.5371 185.079 99.018 185.079V183.579ZM94.43 184.8L93.6371 183.527C92.09 184.49 90.8847 185.819 90.0267 187.478L91.359 188.167L92.6913 188.856C93.3133 187.654 94.1553 186.738 95.2228 186.073L94.43 184.8ZM91.359 188.167L90.0173 187.496C89.1788 189.173 88.786 191.089 88.786 193.199H90.286H91.786C91.786 191.461 92.1085 190.022 92.7006 188.838L91.359 188.167ZM90.286 193.199H88.786C88.786 195.317 89.1943 197.247 90.0589 198.948L91.396 198.268L92.7331 197.588C92.1177 196.378 91.786 194.929 91.786 193.199H90.286ZM91.396 198.268L90.0731 198.975C90.9586 200.632 92.1896 201.956 93.7588 202.915L94.541 201.635L95.3232 200.355C94.2284 199.686 93.3627 198.766 92.7189 197.561L91.396 198.268ZM94.541 201.635L93.7588 202.915C95.3508 203.888 97.1565 204.356 99.129 204.356V202.856V201.356C97.6481 201.356 96.3952 201.01 95.3232 200.355L94.541 201.635ZM99.129 202.856V204.356C100.733 204.356 102.244 204.045 103.639 203.406L103.014 202.042L102.389 200.678C101.416 201.124 100.337 201.356 99.129 201.356V202.856ZM103.014 202.042L103.662 203.395C105.062 202.724 106.216 201.773 107.088 200.54L105.863 199.674L104.638 198.808C104.079 199.598 103.334 200.226 102.366 200.689L103.014 202.042ZM105.863 199.674L107.097 200.526C108.006 199.211 108.436 197.684 108.436 196.011H106.936H105.436C105.436 197.15 105.151 198.065 104.629 198.822L105.863 199.674ZM106.936 196.011H108.436V193.902H106.936H105.436V196.011H106.936ZM106.936 193.902L105.951 195.033L108.245 197.031L109.23 195.9L110.215 194.769L107.921 192.771L106.936 193.902ZM109.23 195.9V194.4H99.018V195.9V197.4H109.23V195.9ZM99.018 195.9H100.518V191.645H99.018H97.518V195.9H99.018ZM99.018 191.645V193.145H111.968V191.645V190.145H99.018V191.645ZM111.968 191.645H110.468V194.42H111.968H113.468V191.645H111.968ZM111.968 194.42H110.468C110.468 196.373 110.139 198.036 109.522 199.441L110.895 200.044L112.268 200.647C113.082 198.796 113.468 196.71 113.468 194.42H111.968ZM110.895 200.044L109.522 199.441C108.886 200.888 108.033 202.078 106.969 203.036L107.972 204.151L108.975 205.266C110.378 204.004 111.474 202.456 112.268 200.647L110.895 200.044ZM107.972 204.151L106.97 203.035C105.902 203.994 104.696 204.722 103.343 205.224L103.865 206.63L104.387 208.036C106.092 207.404 107.624 206.479 108.974 205.267L107.972 204.151ZM103.865 206.63L103.363 205.216C101.996 205.702 100.587 205.944 99.129 205.944V207.444V208.944C100.927 208.944 102.676 208.644 104.367 208.044L103.865 206.63ZM120.02 207H118.52V208.5H120.02V207ZM120.02 179.435V177.935H118.52V179.435H120.02ZM125.052 179.435H126.552V177.935H125.052V179.435ZM125.052 207V208.5H126.552V207H125.052ZM120.02 207H121.52V179.435H120.02H118.52V207H120.02ZM120.02 179.435V180.935H125.052V179.435V177.935H120.02V179.435ZM125.052 179.435H123.552V207H125.052H126.552V179.435H125.052ZM125.052 207V205.5H120.02V207V208.5H125.052V207Z" fill="#333333"/>
<path d="M156.407 207L165.916 179.435H172.428L181.937 207H176.461L174.5 201.08H163.844L161.846 207H156.407ZM165.287 196.64H173.057L168.469 182.913H169.875L165.287 196.64ZM189.075 207V179.435H194.107V202.56H205.91V207H189.075Z" fill="#333333"/>
<path d="M156.407 207L154.989 206.511L154.303 208.5H156.407V207ZM165.916 179.435V177.935H164.847L164.498 178.946L165.916 179.435ZM172.428 179.435L173.846 178.946L173.497 177.935H172.428V179.435ZM181.937 207V208.5H184.041L183.355 206.511L181.937 207ZM176.461 207L175.037 207.472L175.378 208.5H176.461V207ZM174.5 201.08L175.924 200.608L175.583 199.58H174.5V201.08ZM163.844 201.08V199.58H162.767L162.423 200.6L163.844 201.08ZM161.846 207V208.5H162.923L163.267 207.48L161.846 207ZM165.287 196.64L163.864 196.165L163.204 198.14H165.287V196.64ZM173.057 196.64V198.14H175.14L174.48 196.165L173.057 196.64ZM168.469 182.913V181.413H166.386L167.046 183.388L168.469 182.913ZM169.875 182.913L171.298 183.388L171.958 181.413H169.875V182.913ZM156.407 207L157.825 207.489L167.334 179.924L165.916 179.435L164.498 178.946L154.989 206.511L156.407 207ZM165.916 179.435V180.935H172.428V179.435V177.935H165.916V179.435ZM172.428 179.435L171.01 179.924L180.519 207.489L181.937 207L183.355 206.511L173.846 178.946L172.428 179.435ZM181.937 207V205.5H176.461V207V208.5H181.937V207ZM176.461 207L177.885 206.528L175.924 200.608L174.5 201.08L173.076 201.552L175.037 207.472L176.461 207ZM174.5 201.08V199.58H163.844V201.08V202.58H174.5V201.08ZM163.844 201.08L162.423 200.6L160.425 206.52L161.846 207L163.267 207.48L165.265 201.56L163.844 201.08ZM161.846 207V205.5H156.407V207V208.5H161.846V207ZM165.287 196.64V198.14H173.057V196.64V195.14H165.287V196.64ZM173.057 196.64L174.48 196.165L169.892 182.438L168.469 182.913L167.046 183.388L171.634 197.115L173.057 196.64ZM168.469 182.913V184.413H169.875V182.913V181.413H168.469V182.913ZM169.875 182.913L168.452 182.438L163.864 196.165L165.287 196.64L166.71 197.115L171.298 183.388L169.875 182.913ZM189.075 207H187.575V208.5H189.075V207ZM189.075 179.435V177.935H187.575V179.435H189.075ZM194.107 179.435H195.607V177.935H194.107V179.435ZM194.107 202.56H192.607V204.06H194.107V202.56ZM205.91 202.56H207.41V201.06H205.91V202.56ZM205.91 207V208.5H207.41V207H205.91ZM189.075 207H190.575V179.435H189.075H187.575V207H189.075ZM189.075 179.435V180.935H194.107V179.435V177.935H189.075V179.435ZM194.107 179.435H192.607V202.56H194.107H195.607V179.435H194.107ZM194.107 202.56V204.06H205.91V202.56V201.06H194.107V202.56ZM205.91 202.56H204.41V207H205.91H207.41V202.56H205.91ZM205.91 207V205.5H189.075V207V208.5H205.91V207Z" fill="#333333"/>
<path d="M34.6607 182.429V204.571C34.6607 205.033 35.0298 205.402 35.4911 205.402C35.9524 205.402 36.3214 205.033 36.3214 204.571V182.429C36.3214 181.82 36.8196 181.321 37.4286 181.321H48.5C48.9613 181.321 49.3303 180.952 49.3303 180.491C49.3303 180.03 48.9613 179.661 48.5 179.661H37.4286C35.897 179.661 34.6607 180.897 34.6607 182.429ZM41.8571 202.634C41.8571 203.095 42.2262 203.464 42.6875 203.464H48.5C54.005 203.464 58.4643 199.005 58.4643 193.5C58.4643 193.039 58.0952 192.67 57.6339 192.67C57.1726 192.67 56.8036 193.039 56.8036 193.5C56.8036 198.088 53.0885 201.804 48.5 201.804H42.6875C42.2262 201.804 41.8571 202.173 41.8571 202.634Z" fill="#FFD700"/>
<path d="M37.4286 178C34.9806 178 33 179.981 33 182.429V204.571C33 207.019 34.9806 209 37.4286 209H48.5C57.0619 209 64 202.062 64 193.5C64 184.938 57.0619 178 48.5 178H37.4286ZM41.8571 187.964C41.8571 187.355 42.3554 186.857 42.9643 186.857H48.5C52.1659 186.857 55.1429 189.834 55.1429 193.5C55.1429 197.166 52.1659 200.143 48.5 200.143H42.9643C42.3554 200.143 41.8571 199.645 41.8571 199.036V187.964ZM36.3214 182.429V204.571C36.3214 205.033 35.9524 205.402 35.4911 205.402C35.0298 205.402 34.6607 205.033 34.6607 204.571V182.429C34.6607 180.897 35.897 179.661 37.4286 179.661H48.5C48.9613 179.661 49.3304 180.03 49.3304 180.491C49.3304 180.952 48.9613 181.321 48.5 181.321H37.4286C36.8196 181.321 36.3214 181.82 36.3214 182.429ZM58.4643 193.5C58.4643 199.005 54.005 203.464 48.5 203.464H42.6875C42.2262 203.464 41.8571 203.095 41.8571 202.634C41.8571 202.173 42.2262 201.804 42.6875 201.804H48.5C53.0885 201.804 56.8036 198.088 56.8036 193.5C56.8036 193.039 57.1726 192.67 57.6339 192.67C58.0952 192.67 58.4643 193.039 58.4643 193.5Z" fill="#333333"/>
<path d="M129.661 182.429C129.661 182.89 130.03 183.259 130.491 183.259C130.952 183.259 131.321 182.89 131.321 182.429C131.321 181.82 131.82 181.321 132.429 181.321H154.571C155.033 181.321 155.402 180.952 155.402 180.491C155.402 180.03 155.033 179.661 154.571 179.661H132.429C130.897 179.661 129.661 180.897 129.661 182.429ZM140.732 187.964V204.571C140.732 205.033 141.101 205.402 141.562 205.402C142.024 205.402 142.393 205.033 142.393 204.571V187.964C142.393 187.503 142.024 187.134 141.562 187.134C141.101 187.134 140.732 187.503 140.732 187.964Z" fill="#0066FF"/>
<path d="M128 182.429C128 179.981 129.981 178 132.429 178H154.571C157.019 178 159 179.981 159 182.429C159 184.877 157.019 186.857 154.571 186.857H149.036C148.427 186.857 147.929 187.355 147.929 187.964V204.571C147.929 207.019 145.948 209 143.5 209C141.052 209 139.071 207.019 139.071 204.571V187.964C139.071 187.355 138.573 186.857 137.964 186.857H132.429C129.981 186.857 128 184.877 128 182.429ZM131.321 182.429C131.321 181.82 131.82 181.321 132.429 181.321H154.571C155.033 181.321 155.402 180.952 155.402 180.491C155.402 180.03 155.033 179.661 154.571 179.661H132.429C130.897 179.661 129.661 180.897 129.661 182.429C129.661 182.89 130.03 183.259 130.491 183.259C130.952 183.259 131.321 182.89 131.321 182.429ZM142.393 187.964C142.393 187.503 142.024 187.134 141.563 187.134C141.101 187.134 140.732 187.503 140.732 187.964V204.571C140.732 205.033 141.101 205.402 141.563 205.402C142.024 205.402 142.393 205.033 142.393 204.571V187.964Z" fill="#333333"/>
<rect x="6" y="6" width="238" height="238" stroke="#333333" stroke-width="12"/>
</svg>
